# xmcd
#
# Track frame offsets: 
#        150
#        17626
#        33610
#        48056
#        63818
#        81025
#        103359
#        116576
#        126957
#        139723
#
# Disc length: 2073 seconds
#
# Revision: 0
# Processed by: cddbd v1.5.2PL0 Copyright (c) Steve Scherf et al.
# Submitted via: ExactAudioCopy v0.95b3
#
DISCID=8108170a
DTITLE=Shirley Bassey - 1974: Nobody Does It Like Me (BGO)
DYEAR=1974
DGENRE=Pop
TTITLE0=Leave A Little Room
TTITLE1=When You Smile
TTITLE2=All That Love Went To Waste
TTITLE3=Davy
TTITLE4=I'm Not Anyone
TTITLE5=Morning In Your Eyes
TTITLE6=Trouble With Hello Is Goodbye, The
TTITLE7=Nobody Does It Like Me
TTITLE8=I'm Nothing Without You
TTITLE9=You Are The Sunshine Of My Life
EXTD=
EXTT0=
EXTT1=
EXTT2=
EXTT3=
EXTT4=
EXTT5=
EXTT6=
EXTT7=
EXTT8=
EXTT9=
PLAYORDER=
